<?xml version="1.0" encoding="utf-8"?>
<!-- Generator: Adobe Illustrator 23.0.4, SVG Export Plug-In . SVG Version: 6.00 Build 0)  -->
<svg version="1.1" id="Layer_1" xmlns="http://www.w3.org/2000/svg" xmlns:xlink="http://www.w3.org/1999/xlink" x="0px" y="0px"
	 viewBox="0 0 100 100" style="enable-background:new 0 0 100 100;" xml:space="preserve">
<style type="text/css">
	.st0{fill:#F5F5F5;stroke:#000000;stroke-width:8;stroke-miterlimit:10;}
	.st1{fill:#333333;}
</style>
<rect class="st0" width="100" height="100"/>
<title>simple-brand-ac</title>
<path class="st1" d="M149,133.4H-24.4V-36H149V133.4z M-17.6,126.8h160V-29.6h-160V126.8z"/>
<path class="st1" d="M36.3,41.2h-15l-3.8,8.1h-5.8l17.4-36.1l16.6,36.1H40L36.3,41.2z M34.1,36.2L29,24.7l-5.4,11.5H34.1z"/>
<path class="st1" d="M69.9,55.4c-2.6-2.4-5.9-3.8-9.5-3.8c-7.6,0-12.7,5.5-12.7,13c-0.3,6.8,5.1,12.6,12.1,12.9c0.3,0,0.5,0,0.8,0
	c3.5-0.1,7-1.5,9.4-4v6.2c-2.9,1.6-6.2,2.5-9.5,2.5c-4.5,0-9.1-1.6-12.4-4.9c-3.6-3.3-5.8-8-5.6-12.9c-0.2-5,2-9.9,5.6-13.3
	c3.5-3.1,8-4.7,12.6-4.4c3.3-0.1,6.5,0.7,9.4,2.5C69.9,49.2,69.9,55.4,69.9,55.4z"/>
</svg>
