<svg xmlns="http://www.w3.org/2000/svg" viewBox="0 0 1736.67 163.43"><defs><style>.cls-1{fill:#ff1720;}.cls-2{fill:#fe0;}.cls-3{fill:blue;}</style></defs><title>wip5</title><g id="Triangle"><circle class="cls-1" cx="1477.08" cy="79.76" r="62.87"/><rect class="cls-2" x="632.29" y="86.66" width="67.78" height="67.78"/><path d="M100.65,119.56H39.37l-15.7,34.63H0L71.41,2.37l68,151.82H115.71ZM91.84,98.92,70.55,50.32,48.4,98.92Z"/><path d="M185.38,10.75c20,0,37.41,2.15,53.33,14,17.41,13.12,27.52,34,27.52,57.85s-9.89,44.51-28.81,57.84c-16.78,11.83-32.48,13.77-52.47,13.77H155.27V10.75ZM177.2,133.54h9.47c10.75,0,25.59-.86,38.06-10.11,9.89-7.52,19.57-21.28,19.57-40.85,0-18.93-9-33.77-19.36-41.29-12.47-9-27.74-9.89-38.27-9.89H177.2Z"/><path d="M371.6,119.56H310.32l-15.7,34.63H271L342.36,2.37l67.95,151.82H386.66Zm-8.81-20.64L341.5,50.32l-22.15,48.6Z"/><path d="M421.92,154.19,452,0l49.89,111.39L552.24,0l27.09,154.19H557L542.34,67.74l-41.71,93.11L459.34,67.52l-15.06,86.67Z"/><path d="M685.34,10.75c20,0,37.42,2.15,53.33,14,17.42,13.12,27.53,34,27.53,57.85s-9.9,44.51-28.82,57.84c-16.77,11.83-32.47,13.77-52.47,13.77H655.23V10.75Zm-8.17,122.79h9.46c10.75,0,25.59-.86,38.06-10.11,9.9-7.52,19.57-21.28,19.57-40.85,0-18.93-9-33.77-19.35-41.29-12.47-9-27.74-9.89-38.28-9.89h-9.46Z"/><path d="M871.57,119.56H810.28l-15.7,34.63H770.93L842.32,2.37l67.95,151.82H886.62Zm-8.82-20.64-21.29-48.6-22.15,48.6Z"/><path d="M923.61,10.75l40,100,40-100h23.66L963.61,163.43,900,10.75Z"/><path d="M1065.1,10.75V154.19h-21.93V10.75Z"/><path d="M1127.46,10.75c20,0,37.42,2.15,53.33,14,17.42,13.12,27.53,34,27.53,57.85s-9.89,44.51-28.82,57.84c-16.77,11.83-32.47,13.77-52.47,13.77h-29.67V10.75Zm-8.17,122.79h9.46c10.76,0,25.59-.86,38.07-10.11,9.89-7.52,19.56-21.28,19.56-40.85,0-18.93-9-33.77-19.35-41.29-12.47-9-27.74-9.89-38.28-9.89h-9.46Z"/><path d="M1387.87,44.3C1372,29.89,1357.12,28.39,1349,28.39c-31.18,0-52.25,23-52.25,54.62,0,30.32,21.93,53.76,52.47,53.76,17.2,0,30.53-8.82,38.7-16.56v26A78.26,78.26,0,0,1,1348.52,157c-26,0-42.36-11.83-50.75-19.78-16.77-15.7-23-34-23-54.19,0-26.45,11-44.73,23-56.13,14.84-14,32-18.71,51.83-18.71,13.11,0,25.8,2.37,38.27,10.32Z"/><path d="M1550.66,82.58c0,42.14-31.61,74.4-74.62,74.4s-74.62-32.26-74.62-74.4S1433,8.17,1476,8.17,1550.66,40.43,1550.66,82.58Zm-21.93,0c0-31.83-21.94-54.19-52.69-54.19s-52.69,22.36-52.69,54.19,21.94,54.19,52.69,54.19S1528.73,114.4,1528.73,82.58Z"/><path d="M1596.89,10.75V133.54H1639v20.65H1575V10.75Z"/><path d="M1736.67,31.4h-57.2V67.74H1735V88.38h-55.48v45.16h57.2v20.65h-79.14V10.75h79.14Z"/><path class="cls-3" d="M23.66,154.19H0L71.41,2.36l68,151.83H115.71"/></g></svg>