<svg id="Layer_1" data-name="Layer 1" xmlns="http://www.w3.org/2000/svg" viewBox="0 0 100 100"><defs><style>.cls-1{fill:#333;}</style></defs><title>simple-brand-ac</title><path class="cls-1" d="M100,100H0V0H100ZM3.86,96.12H96.13V3.85H3.86Z"/><path class="cls-1" d="M34.23,44.46H24.37L21.84,50H18L29.52,25.6,40.46,50H36.65Zm-1.42-3.33-3.42-7.81-3.57,7.81Z"/><path class="cls-1" d="M56.41,54.08a9,9,0,0,0-6.26-2.56c-5,0-8.41,3.7-8.41,8.79A8.33,8.33,0,0,0,50.19,69a9.11,9.11,0,0,0,6.22-2.67v4.19a12.61,12.61,0,0,1-6.33,1.73A11.56,11.56,0,0,1,41.92,69a11.32,11.32,0,0,1-3.7-8.72,12.05,12.05,0,0,1,3.7-9,11.42,11.42,0,0,1,8.34-3,10.93,10.93,0,0,1,6.15,1.66Z"/></svg>