<svg id="Layer_1" data-name="Layer 1" xmlns="http://www.w3.org/2000/svg" viewBox="0 0 200 200"><defs><style>.cls-1{fill:#333;}.cls-2{fill:none;stroke:#333;stroke-miterlimit:10;stroke-width:10px;}</style></defs><title>thicker-brandstamp-simple</title><path class="cls-1" d="M68.36,88.87H48.66l-5,11.12H36L59,51.21,80.8,100H73.19Zm-2.84-6.64L58.68,66.62,51.57,82.23Z"/><path class="cls-1" d="M112.67,108.1c-5.11-4.64-9.88-5.12-12.51-5.12-10,0-16.79,7.39-16.79,17.55,0,9.75,7,17.28,16.86,17.28a18.29,18.29,0,0,0,12.44-5.32v8.36A25.19,25.19,0,0,1,100,144.3,23.14,23.14,0,0,1,83.71,138a22.61,22.61,0,0,1-7.39-17.42,24.09,24.09,0,0,1,7.39-18c4.77-4.49,10.3-6,16.66-6a22,22,0,0,1,12.3,3.32Z"/><rect class="cls-2" x="5" y="5" width="190" height="190"/></svg>